<svg aria-hidden="true" style="position: absolute; width: 0; height: 0; overflow: hidden;" version="1.1" xmlns="http://www.w3.org/2000/svg" xmlns:xlink="http://www.w3.org/1999/xlink">
<defs>
<symbol id="icon-apostrof" viewBox="0 0 43 32">
<path fill="#e1e1e1" style="fill: var(--color1, #e1e1e1)" d="M32.014 0c1.929 0 3.75 0.52 5.464 1.561s3.107 2.537 4.179 4.488c1.029 1.951 1.543 4.249 1.543 6.894s-0.643 5.225-1.929 7.74c-0.429 0.911-1.2 2.081-2.314 3.512-1.157 1.431-2.229 2.667-3.214 3.707l-4.050 4.098-2.893-4.813c2.014-1.257 3.793-2.818 5.336-4.683 1.543-1.821 2.314-3.491 2.314-5.008 0-0.78-0.171-1.409-0.514-1.886-1.5 1.084-3.171 1.626-5.014 1.626-1.329 0-2.593-0.412-3.793-1.236-1.243-0.78-2.229-1.821-2.957-3.122-0.771-1.258-1.157-2.558-1.157-3.902 0-1.518 0.45-2.97 1.35-4.358 0.857-1.388 1.993-2.515 3.407-3.382 1.371-0.824 2.786-1.236 4.243-1.236zM8.936 0c1.929 0 3.75 0.52 5.464 1.561s3.107 2.537 4.179 4.488c1.029 1.951 1.543 4.249 1.543 6.894 0 1.864-0.236 3.534-0.707 5.008-0.471 1.518-1.286 3.1-2.443 4.748-1.114 1.561-2.164 2.862-3.15 3.902-0.986 1.084-2.7 2.884-5.143 5.398l-2.893-4.813c2.014-1.257 3.793-2.818 5.336-4.683 1.543-1.821 2.314-3.491 2.314-5.008 0-0.78-0.171-1.409-0.514-1.886-1.5 1.084-3.171 1.626-5.014 1.626-1.329 0-2.593-0.412-3.793-1.236-1.243-0.78-2.229-1.821-2.957-3.122-0.771-1.258-1.157-2.558-1.157-3.902 0-1.518 0.429-2.97 1.286-4.358s1.993-2.515 3.407-3.382c1.371-0.824 2.786-1.236 4.243-1.236z"></path>
</symbol>
<symbol id="icon-arrow-right3" viewBox="0 0 32 32">
<path d="M0 0h32v32h-32z"></path>
</symbol>
<symbol id="icon-Btn-4_buy-now" viewBox="0 0 116 32">
<path fill="#fff" style="fill: var(--color2, #fff)" d="M16 0h83.636c8.837 0 16 7.163 16 16s-7.163 16-16 16h-83.636c-8.837 0-16-7.163-16-16s7.163-16 16-16z"></path>
<path fill="#d41443" style="fill: var(--color3, #d41443)" d="M29.092 19.636v-8.145h3.27c0.846 0 1.489 0.198 1.932 0.593 0.45 0.388 0.675 0.888 0.675 1.501 0 0.512-0.14 0.923-0.419 1.233-0.272 0.303-0.605 0.508-1.001 0.617 0.465 0.093 0.849 0.326 1.152 0.698 0.303 0.365 0.454 0.791 0.454 1.28 0 0.644-0.233 1.175-0.698 1.594s-1.125 0.628-1.978 0.628h-3.386zM30.582 14.912h1.559c0.419 0 0.741-0.097 0.966-0.291s0.337-0.469 0.337-0.826c0-0.341-0.112-0.609-0.337-0.803-0.217-0.202-0.547-0.303-0.989-0.303h-1.536v2.223zM30.582 18.426h1.664c0.442 0 0.783-0.101 1.024-0.303 0.248-0.209 0.372-0.5 0.372-0.873 0-0.38-0.128-0.679-0.384-0.896s-0.601-0.326-1.036-0.326h-1.641v2.397zM41.961 13.865v5.772h-1.315l-0.116-0.977c-0.178 0.341-0.438 0.613-0.78 0.815-0.334 0.202-0.729 0.303-1.187 0.303-0.714 0-1.268-0.225-1.664-0.675s-0.593-1.109-0.593-1.978v-3.258h1.489v3.119c0 0.497 0.101 0.877 0.303 1.14s0.516 0.396 0.943 0.396c0.419 0 0.76-0.147 1.024-0.442 0.272-0.295 0.407-0.706 0.407-1.233v-2.979h1.489zM44.199 22.196l1.338-2.944h-0.349l-2.246-5.388h1.617l1.617 4.061 1.687-4.061h1.583l-3.665 8.332h-1.583zM53.194 19.636v-5.772h1.315l0.116 0.977c0.178-0.341 0.434-0.613 0.768-0.815 0.341-0.202 0.741-0.303 1.199-0.303 0.714 0 1.268 0.225 1.664 0.675s0.593 1.109 0.593 1.978v3.258h-1.489v-3.119c0-0.497-0.101-0.877-0.303-1.14s-0.516-0.396-0.943-0.396c-0.419 0-0.764 0.147-1.036 0.442-0.264 0.295-0.396 0.706-0.396 1.233v2.979h-1.489zM63.043 19.776c-0.559 0-1.063-0.128-1.513-0.384-0.442-0.256-0.795-0.609-1.059-1.059-0.256-0.458-0.384-0.985-0.384-1.583s0.132-1.121 0.396-1.571c0.264-0.458 0.617-0.815 1.059-1.071 0.45-0.256 0.954-0.384 1.513-0.384 0.551 0 1.047 0.128 1.489 0.384 0.45 0.256 0.803 0.613 1.059 1.071 0.264 0.45 0.396 0.974 0.396 1.571s-0.132 1.125-0.396 1.583c-0.256 0.45-0.609 0.803-1.059 1.059s-0.95 0.384-1.501 0.384zM63.043 18.484c0.388 0 0.725-0.143 1.012-0.431 0.287-0.295 0.431-0.729 0.431-1.303s-0.144-1.005-0.431-1.292c-0.287-0.295-0.621-0.442-1.001-0.442-0.396 0-0.737 0.147-1.024 0.442-0.279 0.287-0.419 0.718-0.419 1.292s0.14 1.009 0.419 1.303c0.287 0.287 0.624 0.431 1.012 0.431zM68.254 19.636l-1.687-5.772h1.478l1.001 4.154 1.164-4.154h1.652l1.164 4.154 1.012-4.154h1.478l-1.699 5.772h-1.548l-1.233-4.317-1.233 4.317h-1.548z"></path>
<path fill="none" stroke="#d41443" style="stroke: var(--color3, #d41443)" stroke-linejoin="round" stroke-linecap="round" stroke-miterlimit="4" stroke-width="1.4545" d="M85.818 13.818l2.909 2.909-2.909 2.909"></path>
</symbol>
<symbol id="icon-Ellipse3" viewBox="0 0 32 32">
<path fill="#ffa5ba" style="fill: var(--color4, #ffa5ba)" d="M32 16c0 8.837-7.163 16-16 16s-16-7.163-16-16c0-8.837 7.163-16 16-16s16 7.163 16 16z"></path>
</symbol>
<symbol id="icon-facebook" viewBox="0 0 32 32">
<path fill="#fea5bb" style="fill: var(--color5, #fea5bb)" d="M16 32c8.837 0 16-7.163 16-16s-7.163-16-16-16c-8.837 0-16 7.163-16 16s7.163 16 16 16z"></path>
<path fill="#fff" style="fill: var(--color2, #fff)" d="M20.446 15.982h-2.61v9.619h-3.955v-9.619h-1.881v-3.38h1.881v-2.187c0-1.564 0.739-4.014 3.99-4.014l2.929 0.012v3.281h-2.125c-0.349 0-0.839 0.175-0.839 0.921v1.989h2.955l-0.346 3.377z"></path>
</symbol>
<symbol id="icon-girl4" viewBox="0 0 40 32">
<path d="M0 0h40.365v32h-40.365z"></path>
</symbol>
<symbol id="icon-github" viewBox="0 0 32 32">
<path fill="#fea5bb" style="fill: var(--color5, #fea5bb)" d="M32 16c0 8.837-7.163 16-16 16s-16-7.163-16-16c0-8.837 7.163-16 16-16s16 7.163 16 16z"></path>
<path fill="#fff" style="fill: var(--color2, #fff)" d="M16 6.588c-5.169 0-9.412 4.242-9.412 9.412 0 4.411 3.095 8.419 7.206 9.412v-3.114c-0.407 0.089-0.782 0.092-1.197-0.030-0.556-0.164-1.008-0.535-1.344-1.1-0.214-0.361-0.593-0.752-0.988-0.723l-0.097-1.099c0.855-0.073 1.595 0.521 2.034 1.259 0.195 0.328 0.419 0.52 0.708 0.605 0.278 0.082 0.578 0.043 0.926-0.080 0.088-0.698 0.407-0.959 0.648-1.326v-0.001c-2.451-0.366-3.428-1.666-3.816-2.693-0.514-1.363-0.238-3.066 0.671-4.142 0.018-0.021 0.050-0.076 0.037-0.114-0.417-1.258 0.091-2.299 0.11-2.41 0.481 0.142 0.559-0.143 2.089 0.786l0.264 0.159c0.111 0.066 0.076 0.028 0.186 0.020 0.639-0.173 1.312-0.269 1.975-0.278 0.668 0.009 1.337 0.104 2.002 0.285l0.086 0.009c-0.007-0.001 0.023-0.005 0.075-0.036 1.911-1.157 1.842-0.779 2.355-0.946 0.019 0.111 0.519 1.169 0.107 2.411-0.056 0.171 1.657 1.739 0.708 4.256-0.388 1.027-1.365 2.328-3.816 2.693v0.001c0.314 0.479 0.692 0.734 0.69 1.722v3.887c4.111-0.993 7.206-5 7.206-9.412 0-5.169-4.242-9.412-9.412-9.412v0z"></path>
</symbol>
<symbol id="icon-Group16" viewBox="0 0 30 32">
<path fill="#fff" style="fill: var(--color2, #fff)" d="M29.922 6.234c0 3.443-2.791 6.234-6.234 6.234s-6.234-2.791-6.234-6.234c0-3.443 2.791-6.234 6.234-6.234s6.234 2.791 6.234 6.234z"></path>
<path fill="#d41443" style="fill: var(--color3, #d41443)" d="M8.252 19.905c0 0.14-0.389 0.255-1.166 0.344-0.777 0.076-1.555 0.115-2.332 0.115s-1.281-0.032-1.51-0.096c-0.217-0.076-0.325-0.197-0.325-0.363v-8.258h-1.95c-0.217 0-0.325-0.465-0.325-1.396s0.108-1.772 0.325-2.523c0.064-0.242 0.739-0.465 2.026-0.669s2.275-0.306 2.963-0.306 1.147 0.025 1.376 0.076 0.401 0.115 0.516 0.191c0.115 0.064 0.204 0.14 0.268 0.229 0.089 0.14 0.134 0.274 0.134 0.401v12.254zM15.691 12.010c0.115-0.102 0.421-0.236 0.918-0.401s1.058-0.249 1.682-0.249c0.637 0 1.172 0.096 1.606 0.287 0.446 0.179 0.79 0.408 1.032 0.688 0.255 0.281 0.453 0.631 0.593 1.051 0.229 0.688 0.344 1.389 0.344 2.103s-0.032 1.255-0.096 1.625c-0.051 0.357-0.191 0.758-0.421 1.204-0.219 0.449-0.522 0.826-0.892 1.123l-0.006 0.005c-0.37 0.306-0.905 0.567-1.606 0.784-0.688 0.204-1.497 0.306-2.428 0.306-2.001 0-3.511-0.548-4.531-1.644-1.019-1.109-1.529-2.893-1.529-5.353 0-2.473 0.478-4.25 1.434-5.334 0.956-1.096 2.409-1.644 4.359-1.644 1.338 0 2.498 0.102 3.479 0.306 0.994 0.191 1.491 0.421 1.491 0.688 0 0.331-0.128 0.911-0.382 1.74-0.242 0.828-0.465 1.243-0.669 1.243-0.064 0-0.255-0.032-0.573-0.096-0.866-0.179-1.657-0.268-2.37-0.268s-1.172 0.179-1.376 0.535c-0.204 0.344-0.306 0.854-0.306 1.529 0.051-0.064 0.134-0.14 0.249-0.229zM16.112 13.73c-0.37 0-0.554 0.688-0.554 2.065 0 1.364 0.185 2.045 0.554 2.045 0.395 0 0.593-0.682 0.593-2.046 0-1.376-0.197-2.065-0.593-2.065z"></path>
<path fill="#fff" style="fill: var(--color2, #fff)" d="M9.658 30.407c-0.276 0-0.524-0.062-0.745-0.186-0.217-0.129-0.393-0.309-0.514-0.522l-0.004-0.007c-0.124-0.229-0.186-0.495-0.186-0.797s0.062-0.566 0.186-0.791c0.128-0.229 0.3-0.405 0.518-0.529 0.208-0.121 0.457-0.192 0.724-0.192 0.007 0 0.015 0 0.022 0h-0.001c0.341 0 0.628 0.089 0.861 0.268 0.237 0.179 0.386 0.417 0.448 0.716h-0.5c-0.035-0.175-0.14-0.321-0.283-0.412l-0.003-0.002c-0.151-0.101-0.328-0.151-0.529-0.151-0.163 0-0.316 0.041-0.46 0.122s-0.26 0.204-0.349 0.367-0.134 0.364-0.134 0.605 0.044 0.442 0.134 0.605c0.089 0.163 0.206 0.287 0.349 0.372 0.143 0.081 0.297 0.122 0.46 0.122 0.202 0 0.378-0.049 0.529-0.145 0.151-0.101 0.246-0.242 0.285-0.425h0.5c-0.057 0.292-0.216 0.539-0.439 0.708l-0.003 0.002c-0.237 0.182-0.526 0.273-0.867 0.273zM12.61 30.407c-0.24 0-0.44-0.041-0.599-0.122s-0.277-0.19-0.355-0.326c-0.073-0.125-0.116-0.276-0.116-0.436 0-0.002 0-0.004 0-0.006v0c0-0.295 0.113-0.522 0.337-0.681s0.532-0.239 0.919-0.239h0.78v-0.035c0-0.252-0.066-0.442-0.198-0.57-0.132-0.132-0.308-0.198-0.529-0.198-0.19 0-0.355 0.049-0.495 0.145-0.135 0.093-0.221 0.231-0.256 0.413h-0.5c0.020-0.209 0.089-0.386 0.209-0.529 0.123-0.141 0.277-0.252 0.452-0.323l0.008-0.003c0.183-0.078 0.377-0.116 0.582-0.116 0.404 0 0.707 0.108 0.908 0.326 0.206 0.213 0.308 0.499 0.308 0.855v1.775h-0.436l-0.029-0.518c-0.087 0.17-0.209 0.31-0.357 0.417l-0.003 0.002c-0.155 0.112-0.364 0.169-0.628 0.169zM12.685 29.994c0.186 0 0.345-0.049 0.477-0.145 0.136-0.097 0.239-0.223 0.308-0.378s0.105-0.318 0.105-0.489v-0.006h-0.739c-0.287 0-0.49 0.050-0.611 0.151-0.107 0.084-0.175 0.214-0.175 0.359 0 0.003 0 0.005 0 0.008v-0c0 0.151 0.054 0.273 0.163 0.367 0.113 0.089 0.27 0.134 0.471 0.134zM14.954 30.338v-2.473h-0.436v-0.413h0.436v-0.5c0-0.279 0.070-0.483 0.21-0.611s0.343-0.192 0.611-0.192h0.291v0.419h-0.215c-0.148 0-0.252 0.031-0.314 0.093-0.062 0.058-0.093 0.159-0.093 0.303v0.489h0.71v0.413h-0.71v2.473h-0.489zM17.919 30.407c-0.275 0-0.519-0.062-0.733-0.186-0.214-0.13-0.385-0.309-0.503-0.522l-0.004-0.007c-0.12-0.225-0.18-0.49-0.18-0.797 0-0.303 0.060-0.566 0.18-0.791 0.121-0.229 0.287-0.405 0.5-0.529 0.217-0.128 0.468-0.192 0.751-0.192 0.279 0 0.52 0.064 0.721 0.192 0.206 0.124 0.363 0.289 0.471 0.495 0.103 0.19 0.164 0.416 0.164 0.656 0 0.047-0.002 0.094-0.007 0.141l0-0.006v0.145h-2.298c0.012 0.221 0.062 0.405 0.151 0.553 0.093 0.143 0.208 0.252 0.343 0.326 0.14 0.074 0.287 0.111 0.442 0.111 0.202 0 0.371-0.047 0.506-0.14s0.235-0.219 0.297-0.378h0.483c-0.079 0.272-0.236 0.501-0.445 0.667l-0.003 0.002c-0.217 0.175-0.496 0.262-0.838 0.262zM17.919 27.795c-0.233 0-0.44 0.072-0.623 0.215-0.178 0.14-0.281 0.345-0.308 0.617h1.815c-0.012-0.26-0.101-0.463-0.268-0.611s-0.372-0.221-0.617-0.221zM21.039 30.407c-0.345 0-0.632-0.087-0.861-0.262s-0.363-0.411-0.401-0.71h0.5c0.031 0.151 0.111 0.283 0.239 0.396 0.132 0.108 0.308 0.163 0.529 0.163 0.206 0 0.357-0.043 0.454-0.128 0.097-0.089 0.145-0.194 0.145-0.314 0-0.175-0.064-0.291-0.192-0.349-0.124-0.058-0.3-0.111-0.529-0.157-0.18-0.037-0.336-0.083-0.486-0.141l0.021 0.007c-0.152-0.056-0.282-0.139-0.39-0.245l0 0c-0.105-0.108-0.157-0.25-0.157-0.425 0-0.252 0.093-0.458 0.279-0.617 0.19-0.163 0.446-0.244 0.768-0.244 0.306 0 0.557 0.078 0.751 0.233 0.198 0.151 0.312 0.369 0.343 0.652h-0.483c-0.020-0.148-0.083-0.262-0.192-0.343-0.105-0.085-0.246-0.128-0.425-0.128-0.175 0-0.31 0.037-0.407 0.111-0.085 0.065-0.14 0.167-0.14 0.281 0 0.003 0 0.007 0 0.010v-0c0 0.116 0.060 0.208 0.18 0.273 0.124 0.066 0.291 0.122 0.5 0.169 0.179 0.039 0.347 0.087 0.506 0.145 0.163 0.054 0.295 0.138 0.396 0.25 0.105 0.108 0.157 0.268 0.157 0.477 0.004 0.26-0.095 0.475-0.297 0.646-0.198 0.167-0.468 0.25-0.809 0.25z"></path>
</symbol>
<symbol id="icon-Group23" viewBox="0 0 39 32">
<path fill="#fff" style="fill: var(--color2, #fff)" d="M38.737 6.316c0 3.488-2.828 6.316-6.316 6.316s-6.316-2.828-6.316-6.316c0-3.488 2.828-6.316 6.316-6.316s6.316 2.828 6.316 6.316z"></path>
<path fill="#d41443" style="fill: var(--color3, #d41443)" d="M8.601 11.475c-0.362 0-0.678-0.426-0.949-1.278-0.258-0.852-0.387-1.672-0.387-2.46 0-0.181 0.2-0.381 0.6-0.6 0.4-0.232 1.007-0.439 1.821-0.62s1.698-0.271 2.653-0.271c3.706 0 5.559 1.298 5.559 3.893 0 0.723-0.155 1.401-0.465 2.034s-0.652 1.143-1.027 1.53c-0.375 0.375-0.813 0.723-1.317 1.046-0.581 0.362-1.136 0.645-1.666 0.852h3.874c0.077 0 0.161 0.039 0.252 0.116 0.091 0.064 0.187 0.271 0.291 0.62 0.103 0.336 0.155 0.762 0.155 1.278 0 0.504-0.032 0.93-0.097 1.278-0.064 0.336-0.142 0.581-0.232 0.736-0.194 0.349-0.368 0.536-0.523 0.562l-0.097 0.019h-8.483c-0.813 0-1.22-1.272-1.22-3.816 0-0.284 0.839-1.065 2.518-2.344 0.646-0.476 1.215-0.978 1.738-1.525l0.005-0.005c0.529-0.555 0.794-1.007 0.794-1.356 0-0.387-0.291-0.581-0.872-0.581s-1.195 0.149-1.84 0.445c-0.633 0.297-0.994 0.445-1.085 0.445zM30.395 9.868c0 1.304-0.517 2.279-1.549 2.925 0.142 0.064 0.323 0.219 0.542 0.465 0.211 0.219 0.402 0.46 0.57 0.717l0.011 0.019c0.4 0.633 0.6 1.381 0.6 2.247 0 1.42-0.51 2.466-1.53 3.138s-2.421 1.007-4.203 1.007c-0.878 0-1.711-0.071-2.499-0.213-0.775-0.155-1.368-0.323-1.782-0.504-0.413-0.194-0.62-0.368-0.62-0.523 0-0.71 0.077-1.336 0.232-1.879s0.329-0.923 0.523-1.143c0.194-0.232 0.381-0.349 0.562-0.349 0.051 0 0.394 0.116 1.027 0.349s1.252 0.349 1.859 0.349c0.62 0 0.93-0.194 0.93-0.581 0-0.529-0.652-0.813-1.956-0.852-0.517-0.013-0.801-0.026-0.852-0.039-0.271-0.091-0.407-0.659-0.407-1.704s0.136-1.621 0.407-1.724c0.051-0.026 0.336-0.039 0.852-0.039 1.304-0.026 1.956-0.291 1.956-0.794 0-0.387-0.284-0.581-0.852-0.581-0.555 0-1.175 0.136-1.859 0.407s-1.059 0.407-1.123 0.407c-0.297 0-0.568-0.432-0.813-1.298s-0.368-1.478-0.368-1.84c0-0.336 0.375-0.678 1.123-1.027 0.826-0.375 2.040-0.562 3.641-0.562 3.719 0 5.578 1.207 5.578 3.622z"></path>
<path fill="#fff" style="fill: var(--color2, #fff)" d="M0.736 30.316v-2.505h-0.442v-0.419h0.442v-0.507c0-0.283 0.071-0.489 0.212-0.619s0.348-0.195 0.619-0.195h0.295v0.424h-0.218c-0.149 0-0.255 0.032-0.318 0.094-0.063 0.059-0.094 0.161-0.094 0.307v0.495h0.719v0.419h-0.719v2.505h-0.495zM3.757 30.387c-0.275 0-0.523-0.063-0.743-0.189-0.221-0.128-0.399-0.308-0.521-0.524l-0.004-0.007c-0.126-0.232-0.189-0.503-0.189-0.813s0.065-0.58 0.195-0.808c0.13-0.232 0.304-0.411 0.525-0.536 0.21-0.119 0.462-0.189 0.729-0.189 0.007 0 0.014 0 0.021 0h-0.001c0.275 0 0.523 0.063 0.743 0.189s0.393 0.304 0.519 0.536c0.13 0.228 0.195 0.497 0.195 0.808s-0.065 0.581-0.195 0.813c-0.127 0.224-0.307 0.404-0.524 0.527l-0.007 0.004c-0.207 0.119-0.456 0.189-0.721 0.189-0.008 0-0.015-0-0.023-0h0.001zM3.757 29.962c0.169 0 0.326-0.041 0.472-0.124s0.263-0.206 0.354-0.371c0.091-0.165 0.136-0.369 0.136-0.613s-0.045-0.448-0.136-0.613c-0.079-0.157-0.198-0.283-0.344-0.369l-0.004-0.002c-0.133-0.078-0.293-0.124-0.463-0.124-0.001 0-0.002 0-0.003 0h0c-0.169 0-0.326 0.041-0.472 0.124s-0.263 0.206-0.354 0.371c-0.091 0.165-0.136 0.369-0.136 0.613s0.045 0.448 0.136 0.613c0.091 0.165 0.206 0.289 0.348 0.371 0.145 0.083 0.301 0.124 0.466 0.124zM7.245 30.387c-0.275 0-0.523-0.063-0.743-0.189-0.221-0.128-0.399-0.308-0.521-0.524l-0.004-0.007c-0.126-0.232-0.189-0.503-0.189-0.813s0.065-0.58 0.195-0.808c0.13-0.232 0.304-0.411 0.525-0.536 0.21-0.119 0.462-0.189 0.729-0.189 0.007 0 0.014 0 0.021 0h-0.001c0.275 0 0.523 0.063 0.743 0.189s0.393 0.304 0.519 0.536c0.13 0.228 0.195 0.497 0.195 0.808s-0.065 0.581-0.195 0.813c-0.127 0.224-0.307 0.404-0.524 0.527l-0.007 0.004c-0.207 0.119-0.456 0.189-0.721 0.189-0.008 0-0.016-0-0.023-0h0.001zM7.245 29.962c0.169 0 0.326-0.041 0.472-0.124s0.263-0.206 0.354-0.371 0.136-0.369 0.136-0.613-0.045-0.448-0.136-0.613c-0.079-0.157-0.198-0.283-0.344-0.369l-0.004-0.002c-0.133-0.078-0.293-0.124-0.463-0.124-0.001 0-0.002 0-0.003 0h0c-0.169 0-0.326 0.041-0.472 0.124s-0.263 0.206-0.354 0.371c-0.090 0.165-0.136 0.369-0.136 0.613s0.045 0.448 0.136 0.613c0.091 0.165 0.206 0.289 0.348 0.371 0.146 0.083 0.301 0.124 0.466 0.124zM10.728 30.387c-0.291 0-0.546-0.067-0.766-0.2-0.216-0.135-0.388-0.32-0.503-0.541l-0.004-0.008c-0.118-0.232-0.177-0.495-0.177-0.79s0.061-0.556 0.183-0.784c0.122-0.232 0.291-0.413 0.507-0.542 0.216-0.133 0.472-0.2 0.766-0.2 0.24 0 0.452 0.049 0.637 0.147s0.328 0.236 0.43 0.413v-1.81h0.495v4.244h-0.448l-0.047-0.483c-0.094 0.141-0.23 0.269-0.407 0.383s-0.399 0.171-0.666 0.171zM10.781 29.956c0.197 0 0.37-0.045 0.519-0.136 0.153-0.094 0.271-0.224 0.354-0.389 0.087-0.165 0.13-0.358 0.13-0.578s-0.043-0.413-0.13-0.578c-0.080-0.161-0.201-0.292-0.35-0.381l-0.004-0.002c-0.142-0.089-0.314-0.142-0.499-0.142-0.007 0-0.014 0-0.020 0l0.001-0c-0.192 0-0.365 0.047-0.519 0.141-0.151 0.093-0.272 0.223-0.351 0.378l-0.002 0.005c-0.083 0.165-0.124 0.358-0.124 0.578s0.041 0.413 0.124 0.578c0.087 0.165 0.205 0.295 0.354 0.389 0.153 0.091 0.326 0.136 0.519 0.136zM15.819 30.316c-0.267 0-0.477-0.065-0.631-0.195s-0.23-0.363-0.23-0.701v-1.609h-0.507v-0.419h0.507l0.065-0.701h0.43v0.701h0.861v0.419h-0.861v1.609c0 0.185 0.037 0.31 0.112 0.377 0.075 0.063 0.206 0.094 0.395 0.094h0.307v0.424h-0.448zM16.943 30.316v-2.924h0.448l0.041 0.56c0.091-0.192 0.228-0.346 0.413-0.46s0.413-0.171 0.684-0.171v0.519h-0.136c-0.173 0-0.332 0.032-0.477 0.094-0.145 0.059-0.261 0.161-0.348 0.307s-0.13 0.346-0.13 0.601v1.474h-0.495zM21.643 27.392v2.924h-0.448l-0.029-0.525c-0.093 0.183-0.232 0.331-0.402 0.434l-0.005 0.003c-0.177 0.106-0.377 0.159-0.601 0.159-0.346 0-0.623-0.104-0.831-0.312-0.204-0.212-0.307-0.536-0.307-0.973v-1.709h0.495v1.656c0 0.609 0.252 0.914 0.755 0.914 0.252 0 0.46-0.091 0.625-0.271 0.169-0.185 0.253-0.446 0.253-0.784v-1.515h0.495zM23.802 30.387c-0.279 0-0.531-0.063-0.755-0.189-0.22-0.131-0.398-0.313-0.521-0.529l-0.004-0.007c-0.126-0.232-0.189-0.501-0.189-0.808s0.063-0.574 0.189-0.802c0.13-0.232 0.304-0.411 0.525-0.536 0.211-0.122 0.463-0.195 0.733-0.195 0.008 0 0.015 0 0.023 0h-0.001c0.346 0 0.637 0.091 0.872 0.271 0.24 0.181 0.391 0.422 0.454 0.725h-0.507c-0.036-0.178-0.141-0.326-0.286-0.417l-0.003-0.002c-0.153-0.102-0.332-0.153-0.536-0.153-0.165 0-0.32 0.041-0.466 0.124s-0.263 0.206-0.354 0.371-0.136 0.369-0.136 0.613 0.045 0.448 0.136 0.613c0.091 0.165 0.208 0.291 0.354 0.377 0.145 0.083 0.301 0.124 0.466 0.124 0.204 0 0.383-0.049 0.536-0.147 0.153-0.102 0.25-0.245 0.289-0.43h0.507c-0.057 0.296-0.219 0.546-0.445 0.717l-0.003 0.002c-0.24 0.185-0.533 0.277-0.878 0.277zM25.819 30.316v-4.244h0.496v2.552l1.197-1.232h0.607l-1.297 1.32 1.463 1.603h-0.631l-1.338-1.515v1.515h-0.495zM29.737 30.387c-0.349 0-0.64-0.088-0.872-0.265s-0.368-0.417-0.407-0.719h0.507c0.032 0.153 0.112 0.287 0.242 0.401 0.133 0.11 0.312 0.165 0.536 0.165 0.208 0 0.362-0.043 0.46-0.13 0.098-0.091 0.147-0.197 0.147-0.318 0-0.177-0.065-0.295-0.195-0.354-0.126-0.059-0.304-0.112-0.536-0.159-0.182-0.037-0.34-0.084-0.492-0.143l0.021 0.007c-0.154-0.056-0.286-0.141-0.395-0.248l0 0c-0.106-0.11-0.159-0.253-0.159-0.43 0-0.256 0.094-0.464 0.283-0.625 0.192-0.165 0.452-0.248 0.778-0.248 0.31 0 0.564 0.079 0.76 0.236 0.2 0.153 0.316 0.373 0.348 0.66h-0.489c-0.020-0.149-0.084-0.265-0.195-0.348-0.106-0.086-0.25-0.13-0.43-0.13-0.177 0-0.315 0.037-0.413 0.112-0.086 0.066-0.142 0.169-0.142 0.285 0 0.003 0 0.007 0 0.010v-0c0 0.118 0.061 0.211 0.183 0.277 0.126 0.067 0.295 0.124 0.507 0.171 0.181 0.039 0.352 0.088 0.513 0.147 0.165 0.055 0.299 0.139 0.401 0.253 0.106 0.11 0.159 0.271 0.159 0.483 0.004 0.263-0.096 0.481-0.301 0.654-0.2 0.169-0.474 0.253-0.819 0.253z"></path>
</symbol>
<symbol id="icon-ice7" viewBox="0 0 14 32">
<path d="M0 0h13.558v32h-13.558z"></path>
</symbol>
<symbol id="icon-icon1_vidro" viewBox="0 0 21 32">
<path d="M0 0h21.12v32h-21.12v-32z"></path>
</symbol>
<symbol id="icon-icon2_apple" viewBox="0 0 32 32">
<path d="M0 0h32v32h-32v-32z"></path>
</symbol>
<symbol id="icon-icon3_ledenci" viewBox="0 0 28 32">
<path d="M0 0h28.16v32h-28.16v-32z"></path>
</symbol>
<symbol id="icon-logo_header" viewBox="0 0 127 32">
<path d="M0 0h127.36v32h-127.36z"></path>
</symbol>
<symbol id="icon-milk5" viewBox="0 0 32 32">
<path d="M0 0h31.556v32h-31.556z"></path>
</symbol>
<symbol id="icon-slider-pic4-1_girl" viewBox="0 0 40 32">
<path d="M0 0h40.365v32h-40.365v-32z"></path>
</symbol>
<symbol id="icon-telegram" viewBox="0 0 32 32">
<path fill="#fea5bb" style="fill: var(--color5, #fea5bb)" d="M32 16c0 8.837-7.163 16-16 16s-16-7.163-16-16c0-8.837 7.163-16 16-16s16 7.163 16 16z"></path>
<path fill="#fff" style="fill: var(--color2, #fff)" d="M12.867 18.375l-0.318 4.169c0.454 0 0.651-0.182 0.887-0.401l2.13-1.9 4.415 3.017c0.81 0.421 1.38 0.199 1.599-0.695l2.898-12.672 0.001-0.001c0.257-1.117-0.433-1.554-1.222-1.28l-17.032 6.086c-1.162 0.421-1.145 1.026-0.198 1.3l4.355 1.264 10.115-5.907c0.476-0.294 0.909-0.131 0.553 0.163l-8.182 6.857z"></path>
</symbol>
</defs>
</svg>
