<svg width="159" height="44" viewBox="0 0 159 44" fill="none" xmlns="http://www.w3.org/2000/svg">
<rect width="159" height="44" rx="22" fill="white"/>
<path d="M40.0021 27V15.8H44.4981C45.6607 15.8 46.5461 16.072 47.1541 16.616C47.7727 17.1493 48.0821 17.8373 48.0821 18.68C48.0821 19.384 47.8901 19.9493 47.5061 20.376C47.1327 20.792 46.6741 21.0747 46.1301 21.224C46.7701 21.352 47.2981 21.672 47.7141 22.184C48.1301 22.6853 48.3381 23.272 48.3381 23.944C48.3381 24.8293 48.0181 25.56 47.3781 26.136C46.7381 26.712 45.8314 27 44.6581 27H40.0021ZM42.0501 20.504H44.1941C44.7701 20.504 45.2127 20.3707 45.5221 20.104C45.8314 19.8373 45.9861 19.4587 45.9861 18.968C45.9861 18.4987 45.8314 18.1307 45.5221 17.864C45.2234 17.5867 44.7701 17.448 44.1621 17.448H42.0501V20.504ZM42.0501 25.336H44.3381C44.9461 25.336 45.4154 25.1973 45.7461 24.92C46.0874 24.632 46.2581 24.232 46.2581 23.72C46.2581 23.1973 46.0821 22.7867 45.7301 22.488C45.3781 22.1893 44.9034 22.04 44.3061 22.04H42.0501V25.336ZM57.6958 19.064V27H55.8878L55.7278 25.656C55.4825 26.1253 55.1251 26.4987 54.6558 26.776C54.1971 27.0533 53.6531 27.192 53.0238 27.192C52.0425 27.192 51.2798 26.8827 50.7358 26.264C50.1918 25.6453 49.9198 24.7387 49.9198 23.544V19.064H51.9678V23.352C51.9678 24.0347 52.1065 24.5573 52.3838 24.92C52.6611 25.2827 53.0931 25.464 53.6798 25.464C54.2558 25.464 54.7251 25.2613 55.0878 24.856C55.4611 24.4507 55.6478 23.8853 55.6478 23.16V19.064H57.6958ZM60.7742 30.52L62.6142 26.472H62.1342L59.0462 19.064H61.2702L63.4942 24.648L65.8142 19.064H67.9902L62.9502 30.52H60.7742ZM73.1416 27V19.064H74.9496L75.1096 20.408C75.3549 19.9387 75.7069 19.5653 76.1656 19.288C76.6349 19.0107 77.1842 18.872 77.8136 18.872C78.7949 18.872 79.5576 19.1813 80.1016 19.8C80.6456 20.4187 80.9176 21.3253 80.9176 22.52V27H78.8696V22.712C78.8696 22.0293 78.7309 21.5067 78.4536 21.144C78.1762 20.7813 77.7442 20.6 77.1576 20.6C76.5816 20.6 76.1069 20.8027 75.7336 21.208C75.3709 21.6133 75.1896 22.1787 75.1896 22.904V27H73.1416ZM86.6839 27.192C85.9159 27.192 85.2226 27.016 84.6039 26.664C83.9959 26.312 83.5106 25.8267 83.1479 25.208C82.7959 24.5787 82.6199 23.8533 82.6199 23.032C82.6199 22.2107 82.8013 21.4907 83.1639 20.872C83.5266 20.2427 84.0119 19.752 84.6199 19.4C85.2386 19.048 85.9319 18.872 86.6999 18.872C87.4573 18.872 88.1399 19.048 88.7479 19.4C89.3666 19.752 89.8519 20.2427 90.2039 20.872C90.5666 21.4907 90.7479 22.2107 90.7479 23.032C90.7479 23.8533 90.5666 24.5787 90.2039 25.208C89.8519 25.8267 89.3666 26.312 88.7479 26.664C88.1293 27.016 87.4413 27.192 86.6839 27.192ZM86.6839 25.416C87.2173 25.416 87.6813 25.2187 88.0759 24.824C88.4706 24.4187 88.6679 23.8213 88.6679 23.032C88.6679 22.2427 88.4706 21.6507 88.0759 21.256C87.6813 20.8507 87.2226 20.648 86.6999 20.648C86.1559 20.648 85.6866 20.8507 85.2919 21.256C84.9079 21.6507 84.7159 22.2427 84.7159 23.032C84.7159 23.8213 84.9079 24.4187 85.2919 24.824C85.6866 25.2187 86.1506 25.416 86.6839 25.416ZM93.8498 27L91.5298 19.064H93.5618L94.9378 24.776L96.5378 19.064H98.8098L100.41 24.776L101.802 19.064H103.834L101.498 27H99.3698L97.6738 21.064L95.9778 27H93.8498Z" fill="#D41443"/>
<path d="M118 19L122 23L118 27" stroke="#D41443" stroke-width="2" stroke-linecap="round" stroke-linejoin="round"/>
</svg>
