<svg aria-hidden="true" style="position:absolute;width:0;height:0;overflow:hidden" xmlns="http://www.w3.org/2000/svg"><defs><symbol id="icon-apostrof" viewBox="0 0 43 32"><path fill="#e1e1e1" style="fill:var(--color1, #e1e1e1)" d="M32.014 0c1.929 0 3.75.52 5.464 1.561s3.107 2.537 4.179 4.488C42.686 8 43.2 10.298 43.2 12.943s-.643 5.225-1.929 7.74c-.429.911-1.2 2.081-2.314 3.512a63.368 63.368 0 0 1-3.214 3.707L31.693 32 28.8 27.187a22.03 22.03 0 0 0 5.336-4.683c1.543-1.821 2.314-3.491 2.314-5.008 0-.78-.171-1.409-.514-1.886a8.359 8.359 0 0 1-5.014 1.626c-1.329 0-2.593-.412-3.793-1.236a8.555 8.555 0 0 1-2.957-3.122c-.771-1.258-1.157-2.558-1.157-3.902 0-1.518.45-2.97 1.35-4.358a10.222 10.222 0 0 1 3.407-3.382C29.143.412 30.558 0 32.015 0zM8.936 0c1.929 0 3.75.52 5.464 1.561s3.107 2.537 4.179 4.488c1.029 1.951 1.543 4.249 1.543 6.894 0 1.864-.236 3.534-.707 5.008-.471 1.518-1.286 3.1-2.443 4.748-1.114 1.561-2.164 2.862-3.15 3.902-.986 1.084-2.7 2.884-5.143 5.398l-2.893-4.813a22.03 22.03 0 0 0 5.336-4.683c1.543-1.821 2.314-3.491 2.314-5.008 0-.78-.171-1.409-.514-1.886a8.359 8.359 0 0 1-5.014 1.626c-1.329 0-2.593-.412-3.793-1.236a8.555 8.555 0 0 1-2.957-3.122C.387 11.619.001 10.319.001 8.975c0-1.518.429-2.97 1.286-4.358S3.28 2.102 4.694 1.235C6.065.411 7.48-.001 8.937-.001z"/></symbol><symbol id="icon-arrow-right3" viewBox="0 0 32 32"><path d="M0 0h32v32H0z"/></symbol><symbol id="icon-Btn-4_buy-now" viewBox="0 0 116 32"><path fill="#fff" style="fill:var(--color2, #fff)" d="M16 0h83.636c8.837 0 16 7.163 16 16s-7.163 16-16 16H16C7.163 32 0 24.837 0 16S7.163 0 16 0z"/><path fill="#d41443" style="fill:var(--color3, #d41443)" d="M29.092 19.636v-8.145h3.27c.846 0 1.489.198 1.932.593.45.388.675.888.675 1.501 0 .512-.14.923-.419 1.233a2.045 2.045 0 0 1-1.001.617c.465.093.849.326 1.152.698.303.365.454.791.454 1.28 0 .644-.233 1.175-.698 1.594s-1.125.628-1.978.628h-3.386zm1.49-4.724h1.559c.419 0 .741-.097.966-.291s.337-.469.337-.826c0-.341-.112-.609-.337-.803-.217-.202-.547-.303-.989-.303h-1.536v2.223zm0 3.514h1.664c.442 0 .783-.101 1.024-.303.248-.209.372-.5.372-.873 0-.38-.128-.679-.384-.896s-.601-.326-1.036-.326h-1.641v2.397zm11.379-4.561v5.772h-1.315l-.116-.977a2.017 2.017 0 0 1-.78.815c-.334.202-.729.303-1.187.303-.714 0-1.268-.225-1.664-.675s-.593-1.109-.593-1.978v-3.258h1.489v3.119c0 .497.101.877.303 1.14s.516.396.943.396c.419 0 .76-.147 1.024-.442.272-.295.407-.706.407-1.233v-2.979h1.489zm2.238 8.331 1.338-2.944h-.349l-2.246-5.388h1.617l1.617 4.061 1.687-4.061h1.583l-3.665 8.332h-1.583zm8.995-2.56v-5.772h1.315l.116.977a2.04 2.04 0 0 1 .768-.815c.341-.202.741-.303 1.199-.303.714 0 1.268.225 1.664.675s.593 1.109.593 1.978v3.258H57.36v-3.119c0-.497-.101-.877-.303-1.14s-.516-.396-.943-.396c-.419 0-.764.147-1.036.442-.264.295-.396.706-.396 1.233v2.979h-1.489zm9.849.14a3.004 3.004 0 0 1-1.513-.384 2.892 2.892 0 0 1-1.059-1.059c-.256-.458-.384-.985-.384-1.583s.132-1.121.396-1.571a2.865 2.865 0 0 1 1.059-1.071c.45-.256.954-.384 1.513-.384.551 0 1.047.128 1.489.384.45.256.803.613 1.059 1.071.264.45.396.974.396 1.571s-.132 1.125-.396 1.583c-.256.45-.609.803-1.059 1.059s-.95.384-1.501.384zm0-1.292c.388 0 .725-.143 1.012-.431.287-.295.431-.729.431-1.303s-.144-1.005-.431-1.292c-.287-.295-.621-.442-1.001-.442a1.38 1.38 0 0 0-1.024.442c-.279.287-.419.718-.419 1.292s.14 1.009.419 1.303c.287.287.624.431 1.012.431zm5.211 1.152-1.687-5.772h1.478l1.001 4.154 1.164-4.154h1.652l1.164 4.154 1.012-4.154h1.478l-1.699 5.772h-1.548l-1.233-4.317-1.233 4.317h-1.548z"/><path fill="none" stroke="#d41443" style="stroke:var(--color3, #d41443)" stroke-linejoin="round" stroke-linecap="round" stroke-width="1.454" d="m85.818 13.818 2.909 2.909-2.909 2.909"/></symbol><symbol id="icon-Ellipse3" viewBox="0 0 32 32"><path fill="#ffa5ba" style="fill:var(--color4, #ffa5ba)" d="M32 16c0 8.837-7.163 16-16 16S0 24.837 0 16 7.163 0 16 0s16 7.163 16 16z"/></symbol><symbol id="icon-facebook" viewBox="0 0 32 32"><path fill="#fea5bb" style="fill:var(--color5, #fea5bb)" d="M16 32c8.837 0 16-7.163 16-16S24.837 0 16 0 0 7.163 0 16s7.163 16 16 16z"/><path fill="#fff" style="fill:var(--color2, #fff)" d="M20.446 15.982h-2.61v9.619h-3.955v-9.619H12v-3.38h1.881v-2.187c0-1.564.739-4.014 3.99-4.014l2.929.012v3.281h-2.125c-.349 0-.839.175-.839.921v1.989h2.955l-.346 3.377z"/></symbol><symbol id="icon-girl4" viewBox="0 0 40 32"><path d="M0 0h40.365v32H0z"/></symbol><symbol id="icon-github" viewBox="0 0 32 32"><path fill="#fea5bb" style="fill:var(--color5, #fea5bb)" d="M32 16c0 8.837-7.163 16-16 16S0 24.837 0 16 7.163 0 16 0s16 7.163 16 16z"/><path fill="#fff" style="fill:var(--color2, #fff)" d="M16 6.588c-5.169 0-9.412 4.242-9.412 9.412 0 4.411 3.095 8.419 7.206 9.412v-3.114a2.307 2.307 0 0 1-1.197-.03c-.556-.164-1.008-.535-1.344-1.1-.214-.361-.593-.752-.988-.723l-.097-1.099c.855-.073 1.595.521 2.034 1.259.195.328.419.52.708.605.278.082.578.043.926-.08.088-.698.407-.959.648-1.326v-.001c-2.451-.366-3.428-1.666-3.816-2.693-.514-1.363-.238-3.066.671-4.142.018-.021.05-.076.037-.114-.417-1.258.091-2.299.11-2.41.481.142.559-.143 2.089.786l.264.159c.111.066.076.028.186.02A8.031 8.031 0 0 1 16 11.131a8.016 8.016 0 0 1 2.002.285l.086.009c-.007-.001.023-.005.075-.036 1.911-1.157 1.842-.779 2.355-.946.019.111.519 1.169.107 2.411-.056.171 1.657 1.739.708 4.256-.388 1.027-1.365 2.328-3.816 2.693v.001c.314.479.692.734.69 1.722v3.887c4.111-.993 7.206-5 7.206-9.412 0-5.169-4.242-9.412-9.412-9.412z"/></symbol><symbol id="icon-Group16" viewBox="0 0 30 32"><path fill="#fff" style="fill:var(--color2, #fff)" d="M29.922 6.234a6.234 6.234 0 1 1-12.468 0 6.234 6.234 0 0 1 12.468 0z"/><path fill="#d41443" style="fill:var(--color3, #d41443)" d="M8.252 19.905c0 .14-.389.255-1.166.344-.777.076-1.555.115-2.332.115s-1.281-.032-1.51-.096c-.217-.076-.325-.197-.325-.363v-8.258H.969c-.217 0-.325-.465-.325-1.396s.108-1.772.325-2.523c.064-.242.739-.465 2.026-.669s2.275-.306 2.963-.306 1.147.025 1.376.076.401.115.516.191c.115.064.204.14.268.229.089.14.134.274.134.401v12.254zm7.439-7.895c.115-.102.421-.236.918-.401s1.058-.249 1.682-.249c.637 0 1.172.096 1.606.287.446.179.79.408 1.032.688.255.281.453.631.593 1.051.229.688.344 1.389.344 2.103s-.032 1.255-.096 1.625c-.051.357-.191.758-.421 1.204a3.261 3.261 0 0 1-.892 1.123l-.006.005c-.37.306-.905.567-1.606.784-.688.204-1.497.306-2.428.306-2.001 0-3.511-.548-4.531-1.644-1.019-1.109-1.529-2.893-1.529-5.353 0-2.473.478-4.25 1.434-5.334.956-1.096 2.409-1.644 4.359-1.644 1.338 0 2.498.102 3.479.306.994.191 1.491.421 1.491.688 0 .331-.128.911-.382 1.74-.242.828-.465 1.243-.669 1.243a4.72 4.72 0 0 1-.573-.096c-.866-.179-1.657-.268-2.37-.268s-1.172.179-1.376.535c-.204.344-.306.854-.306 1.529.051-.064.134-.14.249-.229zm.421 1.72c-.37 0-.554.688-.554 2.065 0 1.364.185 2.045.554 2.045.395 0 .593-.682.593-2.046 0-1.376-.197-2.065-.593-2.065z"/><path fill="#fff" style="fill:var(--color2, #fff)" d="M9.658 30.407c-.276 0-.524-.062-.745-.186a1.429 1.429 0 0 1-.514-.522l-.004-.007c-.124-.229-.186-.495-.186-.797s.062-.566.186-.791c.128-.229.3-.405.518-.529a1.44 1.44 0 0 1 .724-.192h.022-.001c.341 0 .628.089.861.268.237.179.386.417.448.716h-.5a.635.635 0 0 0-.283-.412l-.003-.002a.93.93 0 0 0-.529-.151.904.904 0 0 0-.809.489c-.089.163-.134.364-.134.605s.044.442.134.605a.952.952 0 0 0 .349.372.92.92 0 0 0 .46.122.964.964 0 0 0 .529-.145.655.655 0 0 0 .285-.425h.5a1.162 1.162 0 0 1-.439.708l-.003.002a1.381 1.381 0 0 1-.867.273zm2.952 0c-.24 0-.44-.041-.599-.122a.83.83 0 0 1-.471-.762v-.006c0-.295.113-.522.337-.681s.532-.239.919-.239h.78v-.035c0-.252-.066-.442-.198-.57-.132-.132-.308-.198-.529-.198a.854.854 0 0 0-.495.145.62.62 0 0 0-.256.413h-.5a.94.94 0 0 1 .209-.529c.123-.141.277-.252.452-.323l.008-.003c.183-.078.377-.116.582-.116.404 0 .707.108.908.326.206.213.308.499.308.855v1.775h-.436l-.029-.518c-.087.17-.209.31-.357.417l-.003.002c-.155.112-.364.169-.628.169zm.075-.413a.79.79 0 0 0 .477-.145c.136-.097.239-.223.308-.378s.105-.318.105-.489v-.006h-.739c-.287 0-.49.05-.611.151a.456.456 0 0 0-.175.359v.008a.46.46 0 0 0 .163.367c.113.089.27.134.471.134zm2.269.344v-2.473h-.436v-.413h.436v-.5c0-.279.07-.483.21-.611s.343-.192.611-.192h.291v.419h-.215c-.148 0-.252.031-.314.093-.062.058-.093.159-.093.303v.489h.71v.413h-.71v2.473h-.489zm2.965.069c-.275 0-.519-.062-.733-.186a1.406 1.406 0 0 1-.503-.522l-.004-.007c-.12-.225-.18-.49-.18-.797 0-.303.06-.566.18-.791.121-.229.287-.405.5-.529.217-.128.468-.192.751-.192.279 0 .52.064.721.192.206.124.363.289.471.495a1.38 1.38 0 0 1 .157.797v-.006.145h-2.298c.012.221.062.405.151.553a.96.96 0 0 0 .343.326c.14.074.287.111.442.111.202 0 .371-.047.506-.14s.235-.219.297-.378h.483a1.315 1.315 0 0 1-.445.667l-.003.002c-.217.175-.496.262-.838.262zm0-2.612a.984.984 0 0 0-.623.215c-.178.14-.281.345-.308.617h1.815c-.012-.26-.101-.463-.268-.611s-.372-.221-.617-.221zm3.12 2.612c-.345 0-.632-.087-.861-.262s-.363-.411-.401-.71h.5a.713.713 0 0 0 .239.396c.132.108.308.163.529.163.206 0 .357-.043.454-.128a.413.413 0 0 0 .145-.314c0-.175-.064-.291-.192-.349a2.418 2.418 0 0 0-.529-.157 2.994 2.994 0 0 1-.486-.141l.021.007a1.088 1.088 0 0 1-.39-.245.584.584 0 0 1-.157-.425c0-.252.093-.458.279-.617.19-.163.446-.244.768-.244.306 0 .557.078.751.233.198.151.312.369.343.652h-.483a.487.487 0 0 0-.192-.343.655.655 0 0 0-.425-.128c-.175 0-.31.037-.407.111a.354.354 0 0 0-.14.281v.01c0 .116.06.208.18.273.124.066.291.122.5.169.179.039.347.087.506.145a.904.904 0 0 1 .396.25c.105.108.157.268.157.477a.793.793 0 0 1-.297.646c-.198.167-.468.25-.809.25z"/></symbol><symbol id="icon-Group23" viewBox="0 0 39 32"><path fill="#fff" style="fill:var(--color2, #fff)" d="M38.737 6.316a6.316 6.316 0 1 1-12.633 0 6.316 6.316 0 0 1 12.633 0z"/><path fill="#d41443" style="fill:var(--color3, #d41443)" d="M8.601 11.475c-.362 0-.678-.426-.949-1.278a8.478 8.478 0 0 1-.387-2.46c0-.181.2-.381.6-.6.4-.232 1.007-.439 1.821-.62s1.698-.271 2.653-.271c3.706 0 5.559 1.298 5.559 3.893 0 .723-.155 1.401-.465 2.034s-.652 1.143-1.027 1.53a7.811 7.811 0 0 1-1.317 1.046c-.581.362-1.136.645-1.666.852h3.874c.077 0 .161.039.252.116.091.064.187.271.291.62.103.336.155.762.155 1.278 0 .504-.032.93-.097 1.278-.064.336-.142.581-.232.736-.194.349-.368.536-.523.562l-.097.019H8.563c-.813 0-1.22-1.272-1.22-3.816 0-.284.839-1.065 2.518-2.344a13.273 13.273 0 0 0 1.738-1.525l.005-.005c.529-.555.794-1.007.794-1.356 0-.387-.291-.581-.872-.581s-1.195.149-1.84.445c-.633.297-.994.445-1.085.445zm21.794-1.607c0 1.304-.517 2.279-1.549 2.925.142.064.323.219.542.465.211.219.402.46.57.717l.011.019c.4.633.6 1.381.6 2.247 0 1.42-.51 2.466-1.53 3.138s-2.421 1.007-4.203 1.007a14.08 14.08 0 0 1-2.499-.213c-.775-.155-1.368-.323-1.782-.504-.413-.194-.62-.368-.62-.523 0-.71.077-1.336.232-1.879s.329-.923.523-1.143c.194-.232.381-.349.562-.349.051 0 .394.116 1.027.349s1.252.349 1.859.349c.62 0 .93-.194.93-.581 0-.529-.652-.813-1.956-.852-.517-.013-.801-.026-.852-.039-.271-.091-.407-.659-.407-1.704s.136-1.621.407-1.724c.051-.026.336-.039.852-.039 1.304-.026 1.956-.291 1.956-.794 0-.387-.284-.581-.852-.581-.555 0-1.175.136-1.859.407s-1.059.407-1.123.407c-.297 0-.568-.432-.813-1.298s-.368-1.478-.368-1.84c0-.336.375-.678 1.123-1.027.826-.375 2.04-.562 3.641-.562 3.719 0 5.578 1.207 5.578 3.622z"/><path fill="#fff" style="fill:var(--color2, #fff)" d="M.736 30.316v-2.505H.294v-.419h.442v-.507c0-.283.071-.489.212-.619s.348-.195.619-.195h.295v.424h-.218c-.149 0-.255.032-.318.094-.063.059-.094.161-.094.307v.495h.719v.419h-.719v2.505H.737zm3.021.071c-.275 0-.523-.063-.743-.189a1.4 1.4 0 0 1-.521-.524l-.004-.007c-.126-.232-.189-.503-.189-.813s.065-.58.195-.808c.13-.232.304-.411.525-.536.21-.119.462-.189.729-.189h.021-.001c.275 0 .523.063.743.189s.393.304.519.536c.13.228.195.497.195.808s-.065.581-.195.813a1.389 1.389 0 0 1-.524.527l-.007.004a1.45 1.45 0 0 1-.721.189h-.023.001zm0-.425a.926.926 0 0 0 .826-.495c.091-.165.136-.369.136-.613s-.045-.448-.136-.613a.889.889 0 0 0-.344-.369l-.004-.002a.917.917 0 0 0-.463-.124h-.003a.926.926 0 0 0-.826.495c-.091.165-.136.369-.136.613s.045.448.136.613a.934.934 0 0 0 .348.371.924.924 0 0 0 .466.124zm3.488.425c-.275 0-.523-.063-.743-.189a1.4 1.4 0 0 1-.521-.524l-.004-.007c-.126-.232-.189-.503-.189-.813s.065-.58.195-.808c.13-.232.304-.411.525-.536.21-.119.462-.189.729-.189h.021-.001c.275 0 .523.063.743.189s.393.304.519.536c.13.228.195.497.195.808s-.065.581-.195.813a1.389 1.389 0 0 1-.524.527l-.007.004a1.45 1.45 0 0 1-.721.189h-.023.001zm0-.425a.926.926 0 0 0 .826-.495c.091-.165.136-.369.136-.613s-.045-.448-.136-.613a.889.889 0 0 0-.344-.369l-.004-.002a.917.917 0 0 0-.463-.124h-.003a.926.926 0 0 0-.826.495c-.09.165-.136.369-.136.613s.045.448.136.613a.934.934 0 0 0 .348.371.927.927 0 0 0 .466.124zm3.483.425a1.45 1.45 0 0 1-.766-.2 1.397 1.397 0 0 1-.503-.541l-.004-.008c-.118-.232-.177-.495-.177-.79s.061-.556.183-.784c.122-.232.291-.413.507-.542.216-.133.472-.2.766-.2.24 0 .452.049.637.147s.328.236.43.413v-1.81h.495v4.244h-.448l-.047-.483c-.094.141-.23.269-.407.383s-.399.171-.666.171zm.053-.431c.197 0 .37-.045.519-.136a.945.945 0 0 0 .354-.389c.087-.165.13-.358.13-.578s-.043-.413-.13-.578a.915.915 0 0 0-.35-.381l-.004-.002a.94.94 0 0 0-.499-.142h-.02.001a.952.952 0 0 0-.87.519l-.002.005c-.083.165-.124.358-.124.578s.041.413.124.578c.087.165.205.295.354.389a.995.995 0 0 0 .519.136zm5.038.36c-.267 0-.477-.065-.631-.195s-.23-.363-.23-.701v-1.609h-.507v-.419h.507l.065-.701h.43v.701h.861v.419h-.861v1.609c0 .185.037.31.112.377.075.063.206.094.395.094h.307v.424h-.448zm1.124 0v-2.924h.448l.041.56c.091-.192.228-.346.413-.46s.413-.171.684-.171v.519h-.136c-.173 0-.332.032-.477.094-.145.059-.261.161-.348.307s-.13.346-.13.601v1.474h-.495zm4.7-2.924v2.924h-.448l-.029-.525a1.073 1.073 0 0 1-.402.434l-.005.003a1.146 1.146 0 0 1-.601.159c-.346 0-.623-.104-.831-.312-.204-.212-.307-.536-.307-.973v-1.709h.495v1.656c0 .609.252.914.755.914.252 0 .46-.091.625-.271.169-.185.253-.446.253-.784v-1.515h.495zm2.159 2.995c-.279 0-.531-.063-.755-.189a1.451 1.451 0 0 1-.521-.529l-.004-.007c-.126-.232-.189-.501-.189-.808s.063-.574.189-.802c.13-.232.304-.411.525-.536.211-.122.463-.195.733-.195h.023-.001c.346 0 .637.091.872.271.24.181.391.422.454.725h-.507a.639.639 0 0 0-.286-.417l-.003-.002a.944.944 0 0 0-.536-.153.926.926 0 0 0-.82.495c-.091.165-.136.369-.136.613s.045.448.136.613a.964.964 0 0 0 .354.377.924.924 0 0 0 .466.124.973.973 0 0 0 .536-.147.661.661 0 0 0 .289-.43h.507a1.172 1.172 0 0 1-.445.717l-.003.002c-.24.185-.533.277-.878.277zm2.017-.071v-4.244h.496v2.552l1.197-1.232h.607l-1.297 1.32 1.463 1.603h-.631L26.316 28.8v1.515h-.495zm3.918.071c-.349 0-.64-.088-.872-.265s-.368-.417-.407-.719h.507a.722.722 0 0 0 .242.401c.133.11.312.165.536.165.208 0 .362-.043.46-.13a.422.422 0 0 0 .147-.318c0-.177-.065-.295-.195-.354a2.466 2.466 0 0 0-.536-.159 2.969 2.969 0 0 1-.492-.143l.021.007a1.093 1.093 0 0 1-.395-.248.593.593 0 0 1-.159-.43c0-.256.094-.464.283-.625.192-.165.452-.248.778-.248.31 0 .564.079.76.236.2.153.316.373.348.66h-.489a.496.496 0 0 0-.195-.348.664.664 0 0 0-.43-.13c-.177 0-.315.037-.413.112a.359.359 0 0 0-.142.285v.01c0 .118.061.211.183.277.126.067.295.124.507.171.181.039.352.088.513.147a.912.912 0 0 1 .401.253c.106.11.159.271.159.483a.802.802 0 0 1-.301.654c-.2.169-.474.253-.819.253z"/></symbol><symbol id="icon-ice7" viewBox="0 0 14 32"><path d="M0 0h13.558v32H0z"/></symbol><symbol id="icon-icon1_vidro" viewBox="0 0 21 32"><path d="M0 0h21.12v32H0V0z"/></symbol><symbol id="icon-icon2_apple" viewBox="0 0 32 32"><path d="M0 0h32v32H0V0z"/></symbol><symbol id="icon-icon3_ledenci" viewBox="0 0 28 32"><path d="M0 0h28.16v32H0V0z"/></symbol><symbol id="icon-logo_header" viewBox="0 0 127 32"><path d="M0 0h127.36v32H0z"/></symbol><symbol id="icon-milk5" viewBox="0 0 32 32"><path d="M0 0h31.556v32H0z"/></symbol><symbol id="icon-slider-pic4-1_girl" viewBox="0 0 40 32"><path d="M0 0h40.365v32H0V0z"/></symbol><symbol id="icon-telegram" viewBox="0 0 32 32"><path fill="#fea5bb" style="fill:var(--color5, #fea5bb)" d="M32 16c0 8.837-7.163 16-16 16S0 24.837 0 16 7.163 0 16 0s16 7.163 16 16z"/><path fill="#fff" style="fill:var(--color2, #fff)" d="m12.867 18.375-.318 4.169c.454 0 .651-.182.887-.401l2.13-1.9 4.415 3.017c.81.421 1.38.199 1.599-.695l2.898-12.672.001-.001c.257-1.117-.433-1.554-1.222-1.28L6.225 14.698c-1.162.421-1.145 1.026-.198 1.3l4.355 1.264 10.115-5.907c.476-.294.909-.131.553.163l-8.182 6.857z"/></symbol></defs></svg>